<?xml version="1.0" encoding="utf-8"?>
<!-- Generator: Adobe Illustrator 23.0.3, SVG Export Plug-In . SVG Version: 6.00 Build 0)  -->
<svg version="1.1" id="Layer_1" xmlns="http://www.w3.org/2000/svg" xmlns:xlink="http://www.w3.org/1999/xlink" x="0px" y="0px"
	 viewBox="0 0 250 150" enable-background="new 0 0 250 150" xml:space="preserve">
<g>
	<g>
		<path d="M140.44,90.24c0.8-1.37,1.89-2.44,3.27-3.2c1.38-0.77,2.88-1.15,4.52-1.15c1.87,0,3.54,0.46,5,1.38s2.52,2.22,3.18,3.91
			h-3.47c-0.46-0.93-1.09-1.62-1.9-2.08c-0.81-0.46-1.75-0.68-2.81-0.68c-1.17,0-2.2,0.26-3.12,0.79c-0.91,0.52-1.63,1.27-2.14,2.25
			c-0.51,0.98-0.77,2.12-0.77,3.42c0,1.3,0.26,2.44,0.77,3.42c0.51,0.98,1.23,1.73,2.14,2.27c0.91,0.53,1.95,0.8,3.12,0.8
			c1.06,0,2-0.23,2.81-0.68c0.81-0.46,1.44-1.15,1.9-2.08h3.47c-0.66,1.69-1.72,2.99-3.18,3.9c-1.46,0.91-3.13,1.37-5,1.37
			c-1.66,0-3.17-0.38-4.53-1.15c-1.37-0.77-2.45-1.84-3.26-3.2c-0.8-1.37-1.2-2.91-1.2-4.63C139.24,93.15,139.64,91.6,140.44,90.24z
			"/>
		<path d="M162.66,88.44v5.17h6.08v2.36h-6.08v5.39h6.84v2.36h-9.73V86.08h9.73v2.36H162.66z"/>
		<path d="M187.51,103.71h-2.89l-8.69-13.14v13.14h-2.89V86.08h2.89l8.69,13.12V86.08h2.89V103.71z"/>
		<path d="M202.68,86.11v2.36h-4.69v15.25h-2.89V88.46h-4.71v-2.36H202.68z"/>
		<path d="M208.48,88.44v5.17h6.08v2.36h-6.08v5.39h6.84v2.36h-9.73V86.08h9.73v2.36H208.48z"/>
		<path d="M228,103.71l-4.05-7.04h-2.2v7.04h-2.89v-17.6h6.08c1.35,0,2.5,0.24,3.43,0.71c0.94,0.47,1.64,1.11,2.1,1.9
			c0.46,0.79,0.7,1.68,0.7,2.66c0,1.15-0.33,2.19-1,3.13c-0.67,0.94-1.69,1.58-3.08,1.91l4.36,7.29H228z M221.75,94.36h3.19
			c1.08,0,1.9-0.27,2.44-0.81c0.55-0.54,0.82-1.27,0.82-2.18c0-0.91-0.27-1.62-0.81-2.14c-0.54-0.51-1.36-0.77-2.46-0.77h-3.19
			V94.36z"/>
	</g>
	<g>
		<g>
			<path d="M30.83,86.11v2.36h-4.69v15.25h-2.89V88.46h-4.71v-2.36H30.83z"/>
			<path d="M42.89,103.71l-4.05-7.04h-2.2v7.04h-2.89v-17.6h6.08c1.35,0,2.49,0.24,3.43,0.71c0.94,0.47,1.64,1.11,2.1,1.9
				c0.46,0.79,0.7,1.68,0.7,2.66c0,1.15-0.33,2.19-1,3.13c-0.67,0.94-1.69,1.58-3.08,1.91l4.36,7.29H42.89z M36.63,94.36h3.19
				c1.08,0,1.9-0.27,2.44-0.81c0.55-0.54,0.82-1.27,0.82-2.18c0-0.91-0.27-1.62-0.81-2.14c-0.54-0.51-1.36-0.77-2.46-0.77h-3.19
				V94.36z"/>
			<path d="M60.37,100.11H53l-1.27,3.6h-3.01l6.31-17.63h3.34l6.31,17.63h-3.04L60.37,100.11z M59.55,97.76l-2.86-8.18l-2.89,8.18
				H59.55z"/>
			<path d="M70.27,86.11v11.22c0,1.33,0.35,2.34,1.05,3.01c0.7,0.68,1.68,1.01,2.93,1.01c1.27,0,2.25-0.34,2.95-1.01
				c0.7-0.68,1.05-1.68,1.05-3.01V86.11h2.89v11.17c0,1.43-0.31,2.65-0.94,3.65c-0.62,1-1.46,1.74-2.51,2.23
				c-1.05,0.49-2.2,0.73-3.47,0.73c-1.27,0-2.42-0.25-3.46-0.73c-1.04-0.49-1.86-1.23-2.47-2.23c-0.61-1-0.91-2.21-0.91-3.65V86.11
				H70.27z"/>
			<path d="M103.42,86.11v17.6h-2.89V91.65l-5.37,12.05h-2l-5.39-12.05v12.05h-2.89v-17.6H88l6.18,13.8l6.15-13.8H103.42z"/>
			<path d="M117.83,100.11h-7.37l-1.27,3.6h-3.01l6.31-17.63h3.34l6.31,17.63h-3.04L117.83,100.11z M117.02,97.76l-2.86-8.18
				l-2.89,8.18H117.02z"/>
		</g>
	</g>
	<g>
		<path d="M53.44,117.29c0.37-0.64,0.88-1.13,1.52-1.49c0.64-0.36,1.34-0.54,2.1-0.54c0.87,0,1.64,0.21,2.32,0.64
			c0.68,0.43,1.17,1.03,1.48,1.82h-1.61c-0.21-0.43-0.51-0.75-0.88-0.96c-0.38-0.21-0.81-0.32-1.31-0.32
			c-0.54,0-1.02,0.12-1.45,0.36c-0.42,0.24-0.75,0.59-0.99,1.05c-0.24,0.46-0.36,0.98-0.36,1.59c0,0.6,0.12,1.13,0.36,1.59
			c0.24,0.46,0.57,0.81,0.99,1.05c0.42,0.25,0.91,0.37,1.45,0.37c0.49,0,0.93-0.11,1.31-0.32c0.38-0.21,0.67-0.53,0.88-0.96h1.61
			c-0.31,0.78-0.8,1.39-1.48,1.81c-0.68,0.42-1.45,0.63-2.32,0.63c-0.77,0-1.47-0.18-2.11-0.53c-0.63-0.36-1.14-0.85-1.51-1.49
			s-0.56-1.35-0.56-2.15C52.89,118.64,53.07,117.93,53.44,117.29z"/>
		<path d="M63.76,116.46v2.4h2.82v1.09h-2.82v2.51h3.18v1.09h-4.52v-8.19h4.52v1.09H63.76z"/>
		<path d="M75.3,123.55h-1.34l-4.03-6.1v6.1h-1.34v-8.19h1.34l4.03,6.09v-6.09h1.34V123.55z"/>
		<path d="M82.34,115.37v1.09h-2.18v7.08h-1.34v-7.08h-2.19v-1.09H82.34z"/>
		<path d="M87.94,123.55l-1.88-3.27h-1.02v3.27H83.7v-8.17h2.82c0.63,0,1.16,0.11,1.59,0.33c0.44,0.22,0.76,0.51,0.98,0.88
			c0.22,0.37,0.32,0.78,0.32,1.23c0,0.53-0.15,1.02-0.46,1.45c-0.31,0.44-0.79,0.73-1.43,0.89l2.02,3.39H87.94z M85.04,119.21h1.48
			c0.5,0,0.88-0.13,1.14-0.38c0.25-0.25,0.38-0.59,0.38-1.01c0-0.42-0.13-0.75-0.38-0.99s-0.63-0.36-1.14-0.36h-1.48V119.21z"/>
		<path d="M92.46,115.37v5.21c0,0.62,0.16,1.09,0.49,1.4c0.33,0.31,0.78,0.47,1.36,0.47c0.59,0,1.04-0.16,1.37-0.47
			c0.33-0.31,0.49-0.78,0.49-1.4v-5.21h1.34v5.19c0,0.67-0.15,1.23-0.44,1.69c-0.29,0.46-0.68,0.81-1.16,1.03
			c-0.49,0.23-1.02,0.34-1.61,0.34c-0.59,0-1.12-0.11-1.61-0.34c-0.48-0.23-0.86-0.57-1.15-1.03c-0.28-0.46-0.42-1.03-0.42-1.69
			v-5.19H92.46z"/>
		<path d="M107.26,115.87c0.65,0.33,1.16,0.81,1.52,1.43s0.53,1.35,0.53,2.18c0,0.83-0.18,1.55-0.53,2.16
			c-0.36,0.61-0.86,1.08-1.52,1.41c-0.65,0.33-1.42,0.49-2.29,0.49h-2.67v-8.17h2.67C105.84,115.37,106.6,115.54,107.26,115.87z
			 M107.17,121.68c0.51-0.52,0.76-1.25,0.76-2.19c0-0.95-0.25-1.69-0.76-2.22c-0.51-0.53-1.24-0.8-2.2-0.8h-1.33v5.99h1.33
			C105.93,122.45,106.66,122.19,107.17,121.68z"/>
		<path d="M111.98,116.46v2.4h2.82v1.09h-2.82v2.51h3.18v1.09h-4.52v-8.19h4.52v1.09H111.98z"/>
		<path d="M125.28,118.98c-0.2,0.37-0.51,0.67-0.94,0.9c-0.43,0.23-0.98,0.35-1.66,0.35h-1.48v3.32h-1.34v-8.17h2.82
			c0.63,0,1.16,0.11,1.59,0.32c0.44,0.22,0.76,0.51,0.98,0.88c0.22,0.37,0.32,0.78,0.32,1.24
			C125.57,118.22,125.48,118.62,125.28,118.98z M123.82,118.79c0.25-0.23,0.38-0.56,0.38-0.98c0-0.89-0.51-1.34-1.52-1.34h-1.48
			v2.67h1.48C123.19,119.14,123.57,119.02,123.82,118.79z"/>
		<path d="M128.07,123.34c-0.44-0.19-0.78-0.46-1.03-0.82c-0.25-0.35-0.38-0.76-0.38-1.23h1.43c0.03,0.35,0.17,0.64,0.42,0.87
			c0.25,0.23,0.59,0.34,1.04,0.34c0.46,0,0.82-0.11,1.08-0.34c0.26-0.22,0.39-0.51,0.39-0.86c0-0.27-0.08-0.5-0.24-0.67
			c-0.16-0.17-0.36-0.31-0.6-0.4c-0.24-0.09-0.57-0.2-0.99-0.31c-0.53-0.14-0.97-0.28-1.3-0.43c-0.33-0.14-0.62-0.37-0.85-0.68
			c-0.24-0.31-0.35-0.71-0.35-1.22c0-0.47,0.12-0.88,0.35-1.23c0.24-0.35,0.56-0.62,0.99-0.81c0.42-0.19,0.91-0.28,1.47-0.28
			c0.79,0,1.44,0.2,1.95,0.59s0.79,0.94,0.84,1.63h-1.48c-0.02-0.3-0.16-0.55-0.42-0.76c-0.26-0.21-0.6-0.32-1.02-0.32
			c-0.38,0-0.7,0.1-0.94,0.29s-0.36,0.48-0.36,0.85c0,0.25,0.08,0.46,0.23,0.62c0.15,0.16,0.35,0.29,0.58,0.38
			c0.24,0.09,0.56,0.2,0.96,0.31c0.54,0.15,0.98,0.3,1.32,0.45c0.34,0.15,0.63,0.38,0.87,0.69c0.24,0.31,0.36,0.72,0.36,1.24
			c0,0.41-0.11,0.81-0.34,1.18c-0.22,0.37-0.55,0.66-0.98,0.89c-0.43,0.22-0.93,0.34-1.51,0.34
			C129,123.63,128.51,123.53,128.07,123.34z"/>
		<path d="M135.3,115.37v8.17h-1.34v-8.17H135.3z"/>
		<path d="M143.59,115.37v8.17h-1.34v-3.58h-3.85v3.58h-1.34v-8.17h1.34v3.5h3.85v-3.5H143.59z"/>
		<path d="M146.98,123.09c-0.64-0.36-1.15-0.85-1.52-1.49c-0.37-0.64-0.56-1.36-0.56-2.16c0-0.8,0.19-1.52,0.56-2.15
			c0.37-0.64,0.88-1.13,1.52-1.49c0.64-0.36,1.34-0.54,2.1-0.54c0.77,0,1.47,0.18,2.11,0.54c0.64,0.36,1.14,0.85,1.51,1.49
			c0.37,0.63,0.55,1.35,0.55,2.15c0,0.8-0.18,1.52-0.55,2.16c-0.37,0.64-0.87,1.14-1.51,1.49c-0.64,0.36-1.34,0.53-2.11,0.53
			C148.32,123.63,147.62,123.45,146.98,123.09z M150.53,122.09c0.42-0.25,0.75-0.6,0.99-1.06c0.24-0.46,0.36-0.99,0.36-1.59
			c0-0.6-0.12-1.13-0.36-1.59c-0.24-0.45-0.57-0.8-0.99-1.05c-0.42-0.24-0.91-0.36-1.45-0.36c-0.54,0-1.02,0.12-1.45,0.36
			c-0.42,0.24-0.75,0.59-0.99,1.05c-0.24,0.46-0.36,0.98-0.36,1.59c0,0.6,0.12,1.13,0.36,1.59s0.57,0.81,0.99,1.06
			c0.42,0.25,0.91,0.37,1.45,0.37C149.62,122.46,150.11,122.34,150.53,122.09z"/>
		<path d="M159.86,115.37v1.09h-2.18v7.08h-1.34v-7.08h-2.19v-1.09H159.86z"/>
		<path d="M162.55,116.46v2.4h2.82v1.09h-2.82v2.51h3.17v1.09h-4.52v-8.19h4.52v1.09H162.55z"/>
		<path d="M171.62,123.55l-1.88-3.27h-1.02v3.27h-1.34v-8.17h2.82c0.63,0,1.16,0.11,1.59,0.33c0.44,0.22,0.76,0.51,0.98,0.88
			c0.22,0.37,0.32,0.78,0.32,1.23c0,0.53-0.15,1.02-0.46,1.45c-0.31,0.44-0.79,0.73-1.43,0.89l2.02,3.39H171.62z M168.71,119.21
			h1.48c0.5,0,0.88-0.13,1.13-0.38c0.25-0.25,0.38-0.59,0.38-1.01c0-0.42-0.13-0.75-0.38-0.99c-0.25-0.24-0.63-0.36-1.14-0.36h-1.48
			V119.21z"/>
		<path d="M179.73,121.88h-3.42l-0.59,1.67h-1.4l2.93-8.19h1.55l2.93,8.19h-1.41L179.73,121.88z M179.35,120.78l-1.33-3.8l-1.34,3.8
			H179.35z"/>
		<path d="M188.42,118.98c-0.2,0.37-0.51,0.67-0.94,0.9c-0.43,0.23-0.98,0.35-1.66,0.35h-1.48v3.32H183v-8.17h2.82
			c0.63,0,1.16,0.11,1.59,0.32c0.44,0.22,0.76,0.51,0.98,0.88c0.22,0.37,0.32,0.78,0.32,1.24
			C188.71,118.22,188.62,118.62,188.42,118.98z M186.96,118.79c0.25-0.23,0.38-0.56,0.38-0.98c0-0.89-0.51-1.34-1.52-1.34h-1.48
			v2.67h1.48C186.33,119.14,186.71,119.02,186.96,118.79z"/>
		<path d="M191.34,115.37v8.17H190v-8.17H191.34z"/>
		<path d="M194.44,116.46v2.4h2.82v1.09h-2.82v2.51h3.17v1.09h-4.52v-8.19h4.52v1.09H194.44z"/>
	</g>
	<path fill="#EFDCFF" d="M149.66,32.54c8.97,7.63,7.43,15.97,1.23,34.16c-3.2,9.39-13.17,15.05-17.89,16.2
		c-7.39,1.8-32.78-10.52-34.3-21.6s0.08-19.22,12.26-27.14S137.59,22.27,149.66,32.54z"/>
	<g>
		<path fill="#00B5AC" d="M171.55,39.09c-2.1-9.47-25.84-3.95-44.02,16.59c-19.88-19.88-40.83-25.54-44.22-16.5
			c-2.35,6.29,12,12.8,31.65,17.68c-13.12,0.24-25.4,3.01-25.79,9.11c-0.89,13.9,38.74-5.77,38.74-5.77
			c1.59,0.7,40.63,17.81,38.39,4.35c-1.13-6.78-14.39-8.12-26.41-7.99C155.54,50.7,173.04,45.83,171.55,39.09z"/>
		<g>
			<path fill="none" d="M128.76,47.66c0.3-0.43,0.34-0.97,0.1-1.43c-0.24-0.46-0.69-0.74-1.2-0.75c-0.52,0.01-0.96,0.29-1.2,0.75
				c-0.24,0.47-0.21,1,0.1,1.43l1.1,1.64L128.76,47.66z"/>
			<path fill="none" d="M135.05,108.49c0.54,0.19,0.96,0.09,1.28-0.3c0.33-0.41,0.29-0.68,0.23-0.85c-0.37-1.05-2.85-2.04-4.85-2.59
				C132.8,106.87,134,108.13,135.05,108.49z"/>
			<path fill="none" d="M135.91,57.17c0.04-0.03,0.09-0.05,0.14-0.06c1.22-0.31,2.45-0.64,3.64-0.96l0.01,0
				c20.51-5.55,32.34-11.08,32.45-15.17c0.04-1.33-0.62-2.27-2-2.87c-6.64-2.86-27.16,3.55-41.96,18.26c0,0.89,0,1.77,0.01,2.65
				c0.7-0.16,2.07-0.47,3.89-0.92c0.29-0.07,0.58,0.11,0.65,0.4c0.07,0.29-0.11,0.58-0.4,0.65c-0.96,0.23-1.79,0.43-2.47,0.59
				c9.51,2.85,29.52,7.9,33.67,4.61c0.52-0.41,0.74-0.93,0.68-1.62c-0.21-2.68-4.57-4-8.19-4.64c-4.06-0.71-9.49-1.01-16.12-0.88
				c-1.18,0.32-2.4,0.64-3.6,0.95c-0.05,0.01-0.09,0.02-0.13,0.02c-0.24,0-0.46-0.16-0.52-0.41c-0.05-0.18,0-0.35,0.11-0.48
				L135.91,57.17z"/>
			<path fill="none" d="M122.7,58.57c0.07-0.29,0.36-0.47,0.65-0.4c1.82,0.44,3.16,0.75,3.77,0.88c0-0.85-0.01-1.71-0.01-2.56
				c-0.02-0.01-0.03-0.02-0.05-0.04c-14.81-14.77-35.4-21.21-42.05-18.35c-1.38,0.6-2.04,1.53-2,2.87
				c0.11,4.09,11.93,9.62,32.45,15.17c1.29,0.35,2.61,0.7,3.93,1.04c0.29,0.07,0.46,0.37,0.39,0.66c-0.06,0.24-0.28,0.41-0.52,0.41
				c-0.04,0-0.09-0.01-0.13-0.02c-1.3-0.33-2.61-0.68-3.88-1.02c-6.63-0.13-12.05,0.17-16.12,0.88c-3.62,0.63-7.97,1.95-8.19,4.64
				c-0.05,0.69,0.16,1.21,0.68,1.62c4.14,3.3,24.15-1.76,33.67-4.61c-0.61-0.14-1.35-0.32-2.19-0.52
				C122.81,59.15,122.63,58.86,122.7,58.57z"/>
			<path d="M173.23,41.01c0.05-1.78-0.87-3.12-2.66-3.89c-3.63-1.56-10.82-0.59-18.75,2.54c-8.61,3.4-16.96,8.77-23.64,15.2
				c0-1.47,0-2.94,0-4.43l1.52-2.15c0.53-0.75,0.6-1.73,0.17-2.55c-0.42-0.8-1.23-1.31-2.13-1.33l-0.05,0
				c-0.9,0.02-1.72,0.52-2.13,1.33c-0.42,0.82-0.36,1.8,0.17,2.55l1.37,2.15c0,1.58,0,2.97,0,4.55c-6.7-6.48-15.1-11.91-23.77-15.33
				c-7.93-3.13-15.12-4.1-18.75-2.54c-1.78,0.77-2.7,2.11-2.66,3.89c0.07,2.86,3.95,5.86,11.84,9.17c4.63,1.94,10.5,3.93,17.5,5.93
				c-4.92,0.04-9.05,0.35-12.33,0.92c-5.81,1.02-8.86,2.91-9.08,5.62c-0.08,1.05,0.28,1.91,1.09,2.55c1.1,0.87,3.07,1.31,5.9,1.31
				c3.56,0,8.48-0.69,14.72-2.07c7.14-1.58,13.84-3.59,15.55-4.12v25.96c0,8.15,1.37,14.01,3.09,17.83c0.01,0.05,0.04,0.1,0.07,0.15
				c1.43,3.11,3.09,4.82,4.41,5.29c0.29,0.1,0.58,0.15,0.86,0.15c0.64,0,1.21-0.27,1.64-0.8c0.62-0.77,0.56-1.46,0.41-1.9
				c-0.72-2.04-5.28-3.23-6.5-3.52c-1.61-3.74-2.88-9.5-2.88-17.19V60.36c1.94,0.59,8.45,2.54,15.39,4.07
				c6.24,1.38,11.16,2.07,14.72,2.07c2.83,0,4.8-0.44,5.9-1.31c0.81-0.64,1.17-1.5,1.09-2.55c-0.21-2.71-3.27-4.6-9.08-5.62
				c-3.28-0.58-7.42-0.88-12.33-0.92c7-2,12.87-3.99,17.49-5.93C169.29,46.86,173.16,43.86,173.23,41.01z M136.55,107.34
				c0.06,0.17,0.1,0.44-0.23,0.85c-0.32,0.39-0.73,0.49-1.28,0.3c-1.04-0.37-2.24-1.62-3.35-3.74
				C133.71,105.31,136.18,106.3,136.55,107.34z M126.56,47.66c-0.3-0.43-0.34-0.97-0.1-1.43c0.24-0.46,0.69-0.74,1.2-0.75
				c0.52,0.01,0.96,0.29,1.2,0.75c0.24,0.47,0.21,1-0.1,1.43l-1.1,1.64L126.56,47.66z M91.62,64.35c-0.52-0.41-0.74-0.93-0.68-1.62
				c0.21-2.68,4.57-4,8.19-4.64c4.06-0.71,9.49-1.01,16.12-0.88c1.27,0.34,2.58,0.69,3.88,1.02c0.04,0.01,0.09,0.02,0.13,0.02
				c0.24,0,0.46-0.16,0.52-0.41c0.07-0.29-0.1-0.58-0.39-0.66c-1.32-0.34-2.64-0.69-3.93-1.04c-20.51-5.55-32.34-11.08-32.45-15.17
				c-0.04-1.33,0.62-2.27,2-2.87c6.66-2.87,27.25,3.58,42.05,18.35c0.01,0.01,0.03,0.02,0.05,0.04c0,0.85,0,1.71,0.01,2.56
				c-0.61-0.14-1.94-0.44-3.77-0.88c-0.29-0.07-0.58,0.11-0.65,0.4c-0.07,0.29,0.11,0.58,0.4,0.65c0.84,0.2,1.58,0.38,2.19,0.52
				C115.77,62.59,95.76,67.64,91.62,64.35z M135.66,57.77c0.06,0.24,0.28,0.41,0.52,0.41c0.04,0,0.09-0.01,0.13-0.02
				c1.21-0.31,2.42-0.63,3.6-0.95c6.63-0.13,12.05,0.17,16.12,0.88c3.62,0.63,7.97,1.95,8.19,4.64c0.05,0.69-0.16,1.21-0.68,1.62
				c-4.14,3.3-24.15-1.76-33.67-4.61c0.68-0.16,1.51-0.36,2.47-0.59c0.29-0.07,0.47-0.36,0.4-0.65c-0.07-0.29-0.36-0.47-0.65-0.4
				c-1.82,0.44-3.19,0.76-3.89,0.92c0-0.88-0.01-1.77-0.01-2.65c14.8-14.71,35.32-21.12,41.96-18.26c1.38,0.6,2.04,1.53,2,2.87
				c-0.11,4.09-11.93,9.62-32.45,15.17l-0.01,0c-1.2,0.32-2.42,0.65-3.64,0.96c-0.05,0.01-0.1,0.04-0.14,0.06l-0.13,0.11
				C135.67,57.42,135.62,57.59,135.66,57.77z"/>
		</g>
	</g>
</g>
</svg>
